<svg xmlns="http://www.w3.org/2000/svg" xmlns:svg="http://www.w3.org/2000/svg" xmlns:xlink="http://www.w3.org/1999/xlink" id="svg26829" width="96.443" height="376.532" version="1.1" viewBox="0 0 90.415 352.999"><defs id="defs26831"><linearGradient id="linearGradient57289" x1="184.5" x2="283.915" y1="305.556" y2="537.556" gradientTransform="translate(-989.70755,-140.19398)" gradientUnits="userSpaceOnUse" xlink:href="#linearGradient57295"/><linearGradient id="linearGradient57295"><stop style="stop-color:#3d2edd;stop-opacity:.94117647" id="stop57291" offset="0"/><stop style="stop-color:#7320b9;stop-opacity:1" id="stop57293" offset="1"/></linearGradient></defs><metadata id="metadata26834"/><g id="layer1" transform="translate(845.20755,-95.86266)"><path style="color:#000;font-style:normal;font-variant:normal;font-weight:400;font-stretch:normal;font-size:medium;line-height:normal;font-family:sans-serif;text-indent:0;text-align:start;text-decoration:none;text-decoration-line:none;text-decoration-style:solid;text-decoration-color:#000;letter-spacing:normal;word-spacing:normal;text-transform:none;direction:ltr;writing-mode:lr-tb;baseline-shift:baseline;text-anchor:start;white-space:normal;clip-rule:nonzero;display:inline;overflow:visible;visibility:visible;opacity:1;isolation:auto;mix-blend-mode:normal;color-interpolation:sRGB;color-interpolation-filters:linearRGB;solid-color:#000;solid-opacity:1;fill:url(#linearGradient57289);fill-opacity:1;fill-rule:evenodd;stroke:none;stroke-width:.99999994;stroke-linecap:butt;stroke-linejoin:miter;stroke-miterlimit:4;stroke-dasharray:none;stroke-dashoffset:0;stroke-opacity:1;color-rendering:auto;image-rendering:auto;shape-rendering:auto;text-rendering:auto;enable-background:accumulate" id="path4549" d="m -817.76419,95.86266 c -1.02389,0 -2.04748,0.39123 -2.82813,1.17188 -1.43976,1.43976 -1.53399,3.69705 -0.31835,5.26562 l -24.29688,24.30274 0,127.41015 23.41016,23.41016 c -1.21662,1.56861 -1.12177,3.82745 0.31836,5.26758 1.56129,1.56128 4.09495,1.56128 5.65625,0 1.56128,-1.56129 1.56129,-4.09497 0,-5.65625 -1.43977,-1.43977 -3.69706,-1.53399 -5.26563,-0.31836 l -23.12305,-23.11524 0,-126.58594 24.00782,-24.00781 c 1.56865,1.21742 3.82714,1.12402 5.26757,-0.3164 1.56129,-1.5613 1.56129,-4.09496 0,-5.65625 -0.78064,-0.78065 -1.80423,-1.17188 -2.82812,-1.17188 z m 5.97266,125 c -1.0239,0 -2.04748,0.39123 -2.82813,1.17188 -1.56129,1.56129 -1.56129,4.09495 0,5.65625 1.44013,1.44013 3.69896,1.53497 5.26758,0.31835 l 23.11914,23.11915 0,167 24.29492,24.29492 c -1.21661,1.56861 -1.12177,3.82745 0.31836,5.26758 1.56129,1.56128 4.09496,1.56128 5.65625,0 1.56129,-1.56129 1.56129,-4.09497 0,-5.65625 -1.43977,-1.43977 -3.69705,-1.53399 -5.26562,-0.31836 l -24.00782,-24.00196 0,-167 -23.41015,-23.41015 c 1.21889,-1.56872 1.12457,-3.82855 -0.31641,-5.26953 -0.78065,-0.78065 -1.80423,-1.17188 -2.82812,-1.17188 z"/></g></svg>